<?xml version="1.0" standalone="no"?>
<!DOCTYPE svg PUBLIC "-//W3C//DTD SVG 20010904//EN"
 "http://www.w3.org/TR/2001/REC-SVG-20010904/DTD/svg10.dtd">
<svg version="1.0" xmlns="http://www.w3.org/2000/svg"
 width="400.000000pt" height="400.000000pt" viewBox="0 0 400.000000 400.000000"
 preserveAspectRatio="xMidYMid meet">

<g transform="translate(0.000000,400.000000) scale(0.100000,-0.100000)"
fill="#000000" stroke="none">
<path d="M2242 3501 c-22 -16 -43 -35 -47 -41 -4 -6 -26 -85 -51 -176 -64
-242 -59 -264 43 -198 32 20 53 39 46 41 -7 2 -21 0 -32 -6 -11 -6 -27 -11
-36 -11 -22 0 -16 36 39 228 l41 147 35 3 c58 6 85 42 32 42 -16 0 -47 -13
-70 -29z"/>
<path d="M3838 3496 l-45 -34 -46 -179 c-26 -98 -47 -188 -47 -201 0 -38 27
-37 86 3 58 38 66 56 15 35 -38 -15 -53 -6 -45 28 22 100 85 316 95 328 6 8
23 14 38 14 15 0 32 5 39 12 42 42 -33 37 -90 -6z"/>
<path d="M2623 3467 c-24 -10 -29 -32 -14 -56 11 -18 51 3 51 27 0 30 -13 40
-37 29z"/>
<path d="M978 3461 c-107 -5 -131 -9 -154 -27 -43 -32 -63 -65 -69 -114 -7
-56 4 -77 33 -61 17 9 20 20 19 72 -2 55 1 63 26 85 18 15 41 24 63 24 19 0
34 -1 34 -2 0 -2 -12 -46 -26 -98 -14 -52 -29 -114 -34 -137 -20 -93 -42 -153
-60 -163 -10 -6 -37 -10 -59 -10 -30 0 -43 -5 -51 -19 -16 -31 -13 -34 34 -29
78 9 163 97 181 188 10 46 22 60 54 60 48 0 56 17 12 24 -45 7 -45 6 -32 56 6
19 15 54 21 78 l11 42 53 0 c40 0 57 5 71 20 10 11 14 19 9 18 -5 -1 -66 -4
-136 -7z"/>
<path d="M2025 3461 c-139 -7 -174 -21 -205 -81 -20 -38 -27 -114 -12 -123 4
-3 17 -1 28 3 19 7 21 14 17 54 -9 78 26 126 92 126 31 0 31 -11 4 -110 -11
-41 -25 -95 -30 -120 -14 -70 -40 -143 -57 -162 -10 -12 -30 -18 -58 -18 -33
0 -46 -5 -54 -19 -15 -29 -13 -31 20 -31 42 0 77 20 129 73 33 35 47 60 61
109 17 63 17 63 58 69 50 6 67 19 26 19 -55 0 -58 8 -37 99 l18 81 51 0 c37 0
59 6 75 20 16 12 19 19 9 18 -8 -1 -69 -4 -135 -7z"/>
<path d="M3531 3443 c-101 -36 -171 -146 -171 -267 0 -98 50 -138 152 -122 49
8 138 45 138 57 0 12 -2 12 -51 -11 -64 -29 -123 -26 -156 6 -24 24 -25 30
-21 103 7 129 75 221 162 224 42 1 62 -14 70 -56 7 -31 7 -31 22 -12 26 34 29
67 9 82 -25 17 -99 15 -154 -4z"/>
<path d="M1165 3334 c-53 -27 -95 -76 -110 -128 -29 -95 -11 -156 44 -156 46
0 122 58 150 113 31 63 35 152 7 173 -25 18 -54 18 -91 -2z m57 -56 c12 -34
-12 -123 -43 -161 -25 -33 -64 -36 -80 -6 -21 40 17 177 53 193 30 12 62 1 70
-26z"/>
<path d="M1345 3319 c-42 -37 -41 -43 3 -27 37 14 41 11 52 -38 9 -37 7 -40
-51 -100 -60 -63 -71 -92 -44 -114 18 -15 17 -17 39 40 19 51 51 94 64 86 5
-3 13 -34 16 -68 13 -112 45 -157 118 -165 51 -5 85 14 74 42 -6 17 -8 17 -27
-3 -23 -26 -37 -27 -65 -7 -29 20 -42 55 -58 160 l-14 90 43 42 c30 29 48 40
62 37 15 -4 22 0 26 18 15 54 -33 47 -88 -13 -36 -41 -55 -43 -55 -8 0 31 -19
59 -40 59 -11 0 -35 -14 -55 -31z"/>
<path d="M2299 3330 c-19 -10 -42 -26 -49 -35 -12 -15 -11 -16 13 -10 24 6 27
4 27 -16 0 -13 -7 -49 -15 -79 -19 -72 -19 -119 0 -126 8 -4 37 8 63 25 26 17
48 27 50 22 6 -17 -40 -176 -55 -193 -12 -14 -32 -18 -80 -18 -48 0 -65 -4
-70 -15 -9 -24 4 -30 62 -30 50 0 57 3 99 44 25 24 50 56 55 70 23 54 99 371
89 371 -31 0 -46 -23 -63 -99 -17 -74 -21 -82 -56 -106 -68 -45 -69 -41 -35
104 29 121 28 124 -35 91z"/>
<path d="M2553 3319 c-49 -34 -54 -44 -18 -35 30 8 31 4 5 -94 -22 -85 -25
-126 -9 -135 12 -8 100 44 107 63 3 11 -3 10 -26 -2 -19 -10 -33 -12 -37 -6
-3 5 5 57 19 116 15 58 26 110 26 115 0 16 -24 9 -67 -22z"/>
<path d="M2718 3323 c-54 -30 -62 -45 -18 -37 l29 6 -30 -112 c-16 -62 -28
-114 -25 -117 2 -3 13 0 24 6 13 7 26 37 42 95 22 82 24 85 66 107 23 13 46
21 49 17 4 -3 -5 -54 -19 -113 -34 -138 -28 -148 48 -95 57 39 67 40 76 9 7
-24 0 -35 -61 -95 -44 -44 -69 -76 -69 -91 0 -52 98 -70 175 -33 79 38 91 59
138 252 25 100 51 183 60 193 28 28 20 35 -40 35 -99 0 -159 -48 -192 -151
-14 -43 -25 -58 -54 -74 -20 -11 -39 -16 -43 -12 -4 4 5 53 20 109 14 57 26
109 26 116 0 20 -22 14 -82 -23 l-58 -34 0 34 c0 19 -3 35 -7 35 -5 0 -29 -12
-55 -27z m435 -19 c3 -3 -3 -20 -13 -37 -10 -18 -21 -46 -25 -63 -4 -20 -21
-43 -46 -63 -60 -49 -72 -27 -45 78 19 69 39 91 86 91 20 0 39 -3 43 -6z m-57
-191 c-3 -10 -13 -49 -22 -88 -30 -125 -45 -140 -134 -133 -57 4 -72 27 -44
65 24 32 184 173 197 173 5 0 6 -8 3 -17z"/>
<path d="M3903 3322 c-48 -30 -56 -47 -18 -38 30 8 30 10 5 -84 -22 -84 -25
-136 -9 -145 14 -9 119 56 119 73 0 12 -4 11 -25 -2 -32 -21 -55 -20 -55 2 0
9 11 58 25 107 14 50 25 96 25 103 0 19 -21 14 -67 -16z"/>
<path d="M2601 2640 c-201 -42 -376 -145 -550 -324 -46 -47 -86 -86 -90 -86
-4 0 -25 18 -46 41 -64 65 -100 83 -169 83 -49 -1 -74 -7 -126 -34 -182 -91
-319 -220 -391 -365 l-43 -87 -71 7 c-201 19 -478 79 -584 126 -85 37 -193 52
-345 46 -78 -3 -151 -8 -163 -12 -26 -8 -31 -43 -8 -51 8 -4 15 -10 15 -15 0
-5 -7 -9 -15 -9 -8 0 -15 -7 -15 -15 0 -11 12 -15 50 -15 59 0 68 20 20 45
-65 34 -24 45 159 45 69 0 146 -5 171 -10 114 -25 218 -75 197 -96 -1 -2 -36
6 -77 17 -86 23 -220 37 -220 22 0 -5 5 -14 11 -20 9 -9 1 -14 -30 -23 -47
-12 -55 -30 -13 -30 49 0 234 -50 296 -80 66 -32 114 -66 106 -74 -3 -2 -37 5
-75 16 -55 16 -99 21 -202 22 -156 1 -173 -7 -123 -53 62 -56 236 -131 306
-131 13 0 24 -4 24 -8 0 -12 -46 -32 -72 -32 -12 0 -118 32 -236 70 -249 82
-292 93 -292 76 0 -6 26 -19 58 -28 31 -8 168 -52 305 -97 283 -92 409 -121
532 -121 113 0 206 23 323 81 93 45 95 46 135 32 101 -35 250 -34 376 3 123
35 262 125 322 207 31 41 31 43 25 133 -3 50 -8 98 -12 107 -8 22 55 50 185
83 78 20 118 24 240 24 279 0 506 -40 719 -126 160 -64 241 -78 437 -71 88 3
182 11 210 19 61 16 70 40 26 66 -17 9 -31 20 -31 23 0 4 31 10 70 13 62 6 91
18 77 32 -8 8 -210 -15 -220 -25 -5 -5 10 -20 38 -36 33 -20 43 -31 35 -39
-15 -15 -333 -21 -417 -7 -96 16 -253 72 -265 94 -5 10 -8 21 -5 23 2 2 51 -7
108 -21 57 -14 139 -28 182 -32 68 -5 77 -4 77 11 0 9 -7 19 -16 23 -21 8 2
23 37 23 14 0 34 6 44 14 18 13 17 15 -20 21 -248 43 -424 105 -486 171 -27
29 -22 29 58 4 94 -29 252 -44 356 -32 49 5 91 13 95 17 12 12 -80 84 -158
121 -41 20 -123 49 -183 63 -116 29 -120 34 -45 65 35 15 41 14 334 -81 238
-76 315 -96 377 -101 72 -4 77 -3 77 15 0 18 -8 21 -77 25 -61 4 -120 19 -273
71 -215 72 -390 121 -580 162 -97 22 -158 28 -275 31 -82 2 -170 -1 -194 -6z
m-51 -56 c-12 -4 -20 -38 -34 -152 -10 -81 -19 -155 -19 -164 -1 -13 -13 -19
-47 -23 -185 -22 -304 -53 -444 -116 -49 -21 -90 -38 -92 -36 -6 6 88 119 164
199 83 87 160 148 264 210 70 42 181 87 208 86 13 0 13 -1 0 -4z m-726 -269
c18 -9 52 -36 76 -60 47 -48 47 -55 0 -113 l-20 -24 -47 42 c-26 23 -88 61
-137 86 l-90 43 45 20 c53 24 129 27 173 6z m-129 -95 c33 -17 85 -51 116 -75
46 -36 60 -55 78 -104 19 -53 21 -76 19 -218 l-3 -158 -71 -36 c-93 -46 -194
-69 -302 -70 -192 0 -342 77 -342 176 0 52 28 146 67 223 46 92 141 196 239
261 84 57 89 57 199 1z m349 -242 c3 -13 6 -58 6 -100 l0 -78 -47 -47 -47 -48
-7 65 c-4 36 -7 92 -8 126 -1 59 -1 60 37 82 47 27 58 27 66 0z m-880 -183
c-3 -22 -13 -49 -21 -60 l-15 -20 7 20 c17 44 17 76 1 88 -14 10 -13 12 9 12
25 0 26 -2 19 -40z"/>
<path d="M1104 720 c-79 -32 -132 -162 -84 -210 45 -45 120 -4 120 64 0 37
-20 56 -57 56 -14 0 -12 -3 7 -13 20 -10 25 -20 23 -46 -3 -68 -75 -99 -81
-34 -2 18 2 42 9 55 7 13 13 34 14 47 1 26 55 77 89 84 20 4 20 4 1 5 -11 0
-29 -3 -41 -8z"/>
<path d="M497 642 c7 -28 -26 -130 -45 -142 -13 -7 -5 -9 32 -10 42 0 47 2 33
13 -16 11 -16 16 -1 67 9 30 20 59 25 65 16 17 10 25 -20 25 -23 0 -28 -4 -24
-18z"/>
<path d="M659 647 c-63 -48 -41 -138 31 -124 16 4 30 2 30 -2 0 -18 -55 -74
-85 -87 -16 -7 -24 -13 -17 -14 29 -1 81 30 107 64 36 48 46 127 20 156 -10
11 -23 20 -28 20 -6 0 -2 -9 8 -20 37 -41 -19 -133 -64 -105 -21 12 -12 75 14
100 25 25 13 34 -16 12z"/>
<path d="M845 623 c-9 -20 -18 -48 -22 -62 -5 -21 -3 -24 8 -13 20 18 57 14
69 -8 20 -37 -31 -120 -65 -106 -8 3 -15 15 -15 26 0 11 -7 20 -15 20 -22 0
-18 -38 6 -50 64 -35 154 56 115 115 -12 19 -25 25 -51 25 -39 0 -39 -1 -25
34 8 21 16 25 56 28 67 4 71 28 5 28 -49 0 -51 -1 -66 -37z"/>
<path d="M11 616 c-8 -10 -9 -15 -1 -18 8 -2 8 -17 -1 -50 -14 -52 -8 -68 16
-48 11 9 12 16 5 20 -7 4 -6 20 5 49 19 55 5 82 -24 47z"/>
<path d="M133 610 c-39 -23 -55 -52 -51 -88 2 -20 9 -28 28 -30 14 -2 33 3 43
10 16 12 14 13 -15 13 -30 0 -33 2 -31 29 3 36 29 66 60 66 12 0 23 5 23 10 0
15 -22 12 -57 -10z"/>
<path d="M304 615 c3 -9 -3 -24 -14 -35 -25 -25 -10 -26 21 -2 23 19 22 52 -2
52 -6 0 -9 -7 -5 -15z"/>
<path d="M241 596 c-47 -50 -23 -125 31 -98 20 11 20 11 2 7 -25 -6 -50 18
-38 37 5 7 9 19 10 26 2 8 10 22 20 33 25 28 1 23 -25 -5z"/>
</g>
</svg>
