<?xml version="1.0" standalone="no"?>
<!DOCTYPE svg PUBLIC "-//W3C//DTD SVG 20010904//EN"
 "http://www.w3.org/TR/2001/REC-SVG-20010904/DTD/svg10.dtd">
<svg version="1.0" xmlns="http://www.w3.org/2000/svg"
 width="148.000000pt" height="148.000000pt" viewBox="0 0 148.000000 148.000000"
 preserveAspectRatio="xMidYMid meet">

<g transform="translate(0.000000,148.000000) scale(0.100000,-0.100000)"
fill="#000000" stroke="none">
<path d="M486 1036 c3 -9 -3 -19 -16 -26 -18 -10 -20 -19 -18 -75 2 -72 -13
-99 -63 -110 -19 -4 -29 -13 -29 -25 0 -10 -3 -25 -6 -34 -5 -13 -11 -11 -33
12 -15 15 -47 38 -71 52 -23 14 -54 43 -69 65 l-26 40 -3 -30 c-2 -16 1 -46 7
-66 18 -60 47 -87 109 -105 31 -9 61 -20 67 -26 5 -5 8 -38 7 -73 -2 -35 1
-89 8 -119 11 -52 14 -56 39 -56 15 0 30 2 33 5 3 3 -3 33 -13 66 -11 34 -19
89 -19 124 l0 64 58 20 c77 28 83 33 110 72 15 22 22 45 20 68 -3 38 -26 54
-34 24 -3 -11 -23 -31 -45 -44 -22 -13 -56 -34 -75 -46 -26 -18 -34 -19 -34
-8 0 8 7 15 15 15 9 0 27 11 41 25 24 24 25 30 19 85 -6 53 -5 60 14 72 22 14
27 33 11 43 -5 3 -7 0 -4 -9z"/>
<path d="M387 905 c-8 -18 -38 -20 -56 -2 -11 10 -13 9 -9 -3 6 -21 52 -24 68
-5 7 8 11 18 8 21 -3 3 -8 -2 -11 -11z"/>
<path d="M650 758 c33 -91 40 -125 40 -185 l0 -73 50 0 50 0 0 76 c0 52 7 95
23 140 21 62 23 65 52 62 l30 -3 3 -137 3 -138 44 0 45 0 0 140 0 140 35 0 35
0 0 -140 0 -140 45 0 45 0 0 82 c0 78 1 80 18 65 37 -33 85 -14 98 39 4 14 4
48 2 76 -4 42 -11 57 -37 80 l-31 28 -219 0 c-245 0 -231 5 -231 -75 0 -24 -4
-47 -10 -50 -6 -4 -10 6 -10 22 0 15 -3 45 -6 66 l-7 37 -53 0 -54 0 40 -112z
m530 13 c0 -34 -12 -81 -21 -81 -5 0 -9 23 -9 50 0 38 4 50 15 50 8 0 15 -8
15 -19z"/>
<path d="M1250 576 c0 -6 -3 -21 -6 -33 -4 -15 0 -24 14 -32 28 -15 52 -4 52
23 0 12 5 27 12 34 9 9 8 12 -7 13 -11 1 -30 3 -42 4 -13 1 -23 -3 -23 -9z"/>
</g>
</svg>
